<?xml version="1.0" standalone="no"?>
<!DOCTYPE svg PUBLIC "-//W3C//DTD SVG 20010904//EN"
 "http://www.w3.org/TR/2001/REC-SVG-20010904/DTD/svg10.dtd">
<svg version="1.0" xmlns="http://www.w3.org/2000/svg"
 width="295.000000pt" height="295.000000pt" viewBox="0 0 295.000000 295.000000"
 preserveAspectRatio="xMidYMid meet">
<metadata>
Created by potrace 1.14, written by Peter Selinger 2001-2017
</metadata>
<g transform="translate(0.000000,295.000000) scale(0.100000,-0.100000)"
fill="#000000" stroke="none">
<path d="M1390 2924 c-140 -38 -228 -134 -257 -279 -13 -64 -13 -62 -10 -370
1 -107 -7 -158 -35 -234 -26 -69 -37 -88 -106 -175 -128 -161 -235 -345 -281
-483 -26 -77 -33 -120 -35 -199 -1 -49 -6 -69 -26 -95 -50 -66 -86 -97 -140
-118 -106 -41 -141 -100 -122 -207 12 -68 10 -105 -8 -158 -26 -79 8 -186 60
-186 9 0 20 -4 26 -10 9 -9 47 -16 102 -19 13 0 21 -5 17 -10 -3 -5 0 -13 6
-17 8 -4 9 -3 5 4 -7 11 7 17 29 12 6 -1 21 -4 35 -5 14 -2 39 -6 55 -8 17 -3
60 -19 98 -36 37 -17 75 -31 83 -31 10 0 14 -6 11 -15 -4 -8 -2 -17 4 -20 5
-4 8 -1 7 7 -2 9 8 12 37 10 22 -2 42 -8 43 -13 2 -5 8 -6 14 -3 6 4 31 8 57
10 26 2 63 10 83 18 19 8 37 14 39 13 2 -1 3 0 2 2 -5 9 80 101 88 95 5 -3 6
-10 3 -16 -4 -7 -2 -8 5 -4 6 4 8 12 5 18 -5 7 2 9 20 4 14 -3 26 -3 26 2 0 5
6 9 13 9 6 1 35 4 62 8 73 9 135 12 135 6 0 -3 12 -6 28 -7 15 0 63 -3 106 -6
l79 -6 20 -41 c23 -49 91 -108 139 -121 27 -8 78 -7 156 2 6 1 12 5 12 10 0 5
4 7 9 4 5 -3 14 1 21 9 7 8 17 15 22 15 13 0 86 57 113 87 17 19 23 21 35 11
12 -11 12 -10 2 3 -10 13 -7 20 12 38 15 14 30 19 42 15 14 -4 15 -3 6 4 -10
7 -3 15 30 35 25 14 56 29 71 32 15 4 27 11 27 15 0 4 15 14 33 21 111 46 128
149 39 250 -16 19 -38 59 -47 89 -35 115 -47 141 -82 169 -33 28 -34 30 -24
67 17 61 7 228 -19 309 -43 134 -126 276 -255 435 -87 106 -142 193 -161 254
-11 35 -17 98 -19 199 -4 184 -10 245 -34 334 -35 134 -111 224 -220 261 -71
24 -214 27 -291 6z"/>
<path d="M2450 489 c0 -5 5 -7 10 -4 6 3 10 8 10 11 0 2 -4 4 -10 4 -5 0 -10
-5 -10 -11z"/>
<path d="M2515 490 c3 -5 8 -10 11 -10 2 0 4 5 4 10 0 6 -5 10 -11 10 -5 0 -7
-4 -4 -10z"/>
<path d="M2414 386 c1 -8 5 -18 8 -22 4 -3 5 1 4 10 -1 8 -5 18 -8 22 -4 3 -5
-1 -4 -10z"/>
<path d="M526 372 c-3 -5 1 -9 9 -9 8 0 12 4 9 9 -3 4 -7 8 -9 8 -2 0 -6 -4
-9 -8z"/>
<path d="M1370 369 c0 -5 5 -7 10 -4 6 3 10 8 10 11 0 2 -4 4 -10 4 -5 0 -10
-5 -10 -11z"/>
<path d="M1415 370 c-3 -5 -1 -10 4 -10 6 0 11 5 11 10 0 6 -2 10 -4 10 -3 0
-8 -4 -11 -10z"/>
<path d="M1455 370 c3 -5 8 -10 11 -10 2 0 4 5 4 10 0 6 -5 10 -11 10 -5 0 -7
-4 -4 -10z"/>
<path d="M1490 370 c0 -5 5 -10 11 -10 5 0 7 5 4 10 -3 6 -8 10 -11 10 -2 0
-4 -4 -4 -10z"/>
<path d="M2376 372 c-3 -5 1 -9 9 -9 8 0 12 4 9 9 -3 4 -7 8 -9 8 -2 0 -6 -4
-9 -8z"/>
<path d="M653 341 c0 -11 5 -18 9 -15 4 3 5 11 1 19 -7 21 -12 19 -10 -4z"/>
<path d="M2334 346 c1 -8 5 -18 8 -22 4 -3 5 1 4 10 -1 8 -5 18 -8 22 -4 3 -5
-1 -4 -10z"/>
<path d="M1370 329 c0 -5 5 -7 10 -4 6 3 10 8 10 11 0 2 -4 4 -10 4 -5 0 -10
-5 -10 -11z"/>
<path d="M1410 329 c0 -5 5 -7 10 -4 6 3 10 8 10 11 0 2 -4 4 -10 4 -5 0 -10
-5 -10 -11z"/>
<path d="M1490 330 c0 -5 5 -10 11 -10 5 0 7 5 4 10 -3 6 -8 10 -11 10 -2 0
-4 -4 -4 -10z"/>
<path d="M1535 330 c3 -5 8 -10 11 -10 2 0 4 5 4 10 0 6 -5 10 -11 10 -5 0 -7
-4 -4 -10z"/>
<path d="M1570 330 c0 -5 5 -10 11 -10 5 0 7 5 4 10 -3 6 -8 10 -11 10 -2 0
-4 -4 -4 -10z"/>
<path d="M2293 325 c0 -8 4 -12 9 -9 5 3 6 10 3 15 -9 13 -12 11 -12 -6z"/>
<path d="M633 285 c0 -8 4 -12 9 -9 5 3 6 10 3 15 -9 13 -12 11 -12 -6z"/>
<path d="M693 279 c-2 -23 3 -25 10 -4 4 8 3 16 -1 19 -4 3 -9 -4 -9 -15z"/>
<path d="M755 289 c-3 -4 2 -6 10 -5 21 3 28 13 10 13 -9 0 -18 -4 -20 -8z"/>
<path d="M1210 289 c0 -5 5 -7 10 -4 6 3 10 8 10 11 0 2 -4 4 -10 4 -5 0 -10
-5 -10 -11z"/>
<path d="M1250 290 c0 -5 5 -10 11 -10 5 0 7 5 4 10 -3 6 -8 10 -11 10 -2 0
-4 -4 -4 -10z"/>
<path d="M1575 290 c3 -5 8 -10 11 -10 2 0 4 5 4 10 0 6 -5 10 -11 10 -5 0 -7
-4 -4 -10z"/>
<path d="M2270 290 c0 -5 5 -10 11 -10 5 0 7 5 4 10 -3 6 -8 10 -11 10 -2 0
-4 -4 -4 -10z"/>
<path d="M1095 261 c-3 -5 -2 -12 3 -15 5 -3 9 1 9 9 0 17 -3 19 -12 6z"/>
<path d="M1573 255 c0 -8 4 -12 9 -9 5 3 6 10 3 15 -9 13 -12 11 -12 -6z"/>
<path d="M1415 250 c3 -5 8 -10 11 -10 2 0 4 5 4 10 0 6 -5 10 -11 10 -5 0 -7
-4 -4 -10z"/>
<path d="M1655 250 c-3 -5 -1 -10 4 -10 6 0 11 5 11 10 0 6 -2 10 -4 10 -3 0
-8 -4 -11 -10z"/>
<path d="M1774 252 c4 -3 14 -7 22 -8 9 -1 13 0 10 4 -4 3 -14 7 -22 8 -9 1
-13 0 -10 -4z"/>
<path d="M1595 190 c3 -5 8 -10 11 -10 2 0 4 5 4 10 0 6 -5 10 -11 10 -5 0 -7
-4 -4 -10z"/>
</g>
</svg>
